HIERARCHY
ROOT Hips
{
    OFFSET 0.000000 0.000000 0.000000
    CHANNELS 6 Xposition Yposition Zposition Zrotation Yrotation Xrotation
    JOINT Chest
    {
        OFFSET 0.000000 1.634758 -0.000000
        CHANNELS 3 Zrotation Yrotation Xrotation
        JOINT Chest2
        {
            OFFSET 0.000000 2.197341 0.000000
            CHANNELS 3 Zrotation Yrotation Xrotation
            JOINT Neck
            {
                OFFSET 0.000000 0.961544 0.000000
                CHANNELS 3 Zrotation Yrotation Xrotation
                JOINT Head
                {
                    OFFSET 0.000000 0.632542 -0.032565
                    CHANNELS 3 Zrotation Yrotation Xrotation
                    End Site
                    {
                        OFFSET -0.000001 0.439502 2.922845
                    }
                }
            }
            JOINT LeftCollar
            {
                OFFSET 0.167536 0.778237 -0.168280
                CHANNELS 3 Zrotation Yrotation Xrotation
                JOINT LeftShoulder
                {
                    OFFSET 0.831514 -0.002900 0.006458
                    CHANNELS 3 Zrotation Yrotation Xrotation
                    JOINT LeftElbow
                    {
                        OFFSET 2.272872 -0.026639 0.059314
                        CHANNELS 3 Zrotation Yrotation Xrotation
                        JOINT LeftWrist
                        {
                            OFFSET 2.081982 -0.024402 0.054333
                            CHANNELS 3 Zrotation Yrotation Xrotation
                            JOINT LeftHandThumb1
                            {
                                OFFSET 0.218903 -0.128645 0.283837
                                CHANNELS 3 Zrotation Yrotation Xrotation
                                JOINT LeftHandThumb2
                                {
                                    OFFSET 0.137157 -0.025101 0.077902
                                    CHANNELS 3 Zrotation Yrotation Xrotation
                                    JOINT LeftHandThumb3
                                    {
                                        OFFSET 0.144681 -0.110835 0.017953
                                        CHANNELS 3 Zrotation Yrotation Xrotation
                                        End Site
                                        {
                                            OFFSET 0.238646 -0.118123 0.030520
                                        }
                                    }
                                }
                            }
                            JOINT LeftHandFore1
                            {
                                OFFSET 0.767340 -0.016076 0.196678
                                CHANNELS 3 Zrotation Yrotation Xrotation
                                JOINT LeftHandFore2
                                {
                                    OFFSET 0.209402 -0.053342 0.017343
                                    CHANNELS 3 Zrotation Yrotation Xrotation
                                    JOINT LeftHandFore3
                                    {
                                        OFFSET 0.112818 -0.062486 0.011430
                                        CHANNELS 3 Zrotation Yrotation Xrotation
                                        End Site
                                        {
                                            OFFSET 0.141709 -0.130704 0.014206
                                        }
                                    }
                                }
                            }
                            JOINT LeftHandMiddle1
                            {
                                OFFSET 0.709887 -0.008320 0.018526
                                CHANNELS 3 Zrotation Yrotation Xrotation
                                JOINT LeftHandMiddle2
                                {
                                    OFFSET 0.234004 -0.070939 0.016534
                                    CHANNELS 3 Zrotation Yrotation Xrotation
                                    JOINT LeftHandMiddle3
                                    {
                                        OFFSET 0.117700 -0.086125 0.010599
                                        CHANNELS 3 Zrotation Yrotation Xrotation
                                        End Site
                                        {
                                            OFFSET 0.132898 -0.194117 0.016944
                                        }
                                    }
                                }
                            }
                            JOINT LeftHandRing1
                            {
                                OFFSET 0.743817 -0.005823 -0.153668
                                CHANNELS 3 Zrotation Yrotation Xrotation
                                JOINT LeftHandRing2
                                {
                                    OFFSET 0.336057 -0.108614 0.001365
                                    CHANNELS 3 Zrotation Yrotation Xrotation
                                    JOINT LeftHandRing3
                                    {
                                        OFFSET 0.089073 -0.103022 0.007615
                                        CHANNELS 3 Zrotation Yrotation Xrotation
                                        End Site
                                        {
                                            OFFSET 0.049870 -0.109053 0.006346
                                        }
                                    }
                                }
                            }
                            JOINT LeftHandLittle1
                            {
                                OFFSET 0.689408 -0.053302 -0.308304
                                CHANNELS 3 Zrotation Yrotation Xrotation
                                JOINT LeftHandLittle2
                                {
                                    OFFSET 0.193659 -0.023240 -0.003200
                                    CHANNELS 3 Zrotation Yrotation Xrotation
                                    JOINT LeftHandLittle3
                                    {
                                        OFFSET 0.097116 -0.070941 0.005652
                                        CHANNELS 3 Zrotation Yrotation Xrotation
                                        End Site
                                        {
                                            OFFSET 0.065850 -0.175011 0.036380
                                        }
                                    }
                                }
                            }
                        }
                    }
                }
            }
            JOINT RightCollar
            {
                OFFSET -0.167536 0.778237 -0.168280
                CHANNELS 3 Zrotation Yrotation Xrotation
                JOINT RightShoulder
                {
                    OFFSET -0.831514 -0.002900 0.006457
                    CHANNELS 3 Zrotation Yrotation Xrotation
                    JOINT RightElbow
                    {
                        OFFSET -2.272872 -0.026639 0.059313
                        CHANNELS 3 Zrotation Yrotation Xrotation
                        JOINT RightWrist
                        {
                            OFFSET -2.081982 -0.024402 0.054331
                            CHANNELS 3 Zrotation Yrotation Xrotation
                            JOINT RightHandThumb1
                            {
                                OFFSET -0.218911 -0.128571 0.283837
                                CHANNELS 3 Zrotation Yrotation Xrotation
                                JOINT RightHandThumb2
                                {
                                    OFFSET -0.137157 -0.025101 0.077902
                                    CHANNELS 3 Zrotation Yrotation Xrotation
                                    JOINT RightHandThumb3
                                    {
                                        OFFSET -0.171200 -0.063622 -0.013492
                                        CHANNELS 3 Zrotation Yrotation Xrotation
                                        End Site
                                        {
                                            OFFSET -0.241508 -0.113039 0.027065
                                        }
                                    }
                                }
                            }
                            JOINT RightHandFore1
                            {
                                OFFSET -0.767344 -0.015991 0.196679
                                CHANNELS 3 Zrotation Yrotation Xrotation
                                JOINT RightHandFore2
                                {
                                    OFFSET -0.209417 -0.053293 0.017356
                                    CHANNELS 3 Zrotation Yrotation Xrotation
                                    JOINT RightHandFore3
                                    {
                                        OFFSET -0.113050 -0.062512 0.008604
                                        CHANNELS 3 Zrotation Yrotation Xrotation
                                        End Site
                                        {
                                            OFFSET -0.141817 -0.130714 0.012985
                                        }
                                    }
                                }
                            }
                            JOINT RightHandMiddle1
                            {
                                OFFSET -0.709887 -0.008302 0.018525
                                CHANNELS 3 Zrotation Yrotation Xrotation
                                JOINT RightHandMiddle2
                                {
                                    OFFSET -0.233992 -0.070960 0.016557
                                    CHANNELS 3 Zrotation Yrotation Xrotation
                                    JOINT RightHandMiddle3
                                    {
                                        OFFSET -0.117946 -0.086170 0.006920
                                        CHANNELS 3 Zrotation Yrotation Xrotation
                                        End Site
                                        {
                                            OFFSET -0.133729 -0.194234 0.004481
                                        }
                                    }
                                }
                            }
                            JOINT RightHandRing1
                            {
                                OFFSET -0.743819 -0.005785 -0.153669
                                CHANNELS 3 Zrotation Yrotation Xrotation
                                JOINT RightHandRing2
                                {
                                    OFFSET -0.336063 -0.108595 0.001425
                                    CHANNELS 3 Zrotation Yrotation Xrotation
                                    JOINT RightHandRing3
                                    {
                                        OFFSET -0.089691 -0.101372 -0.016861
                                        CHANNELS 3 Zrotation Yrotation Xrotation
                                        End Site
                                        {
                                            OFFSET -0.050489 -0.107380 -0.018456
                                        }
                                    }
                                }
                            }
                            JOINT RightHandLittle1
                            {
                                OFFSET -0.689403 -0.053298 -0.308303
                                CHANNELS 3 Zrotation Yrotation Xrotation
                                JOINT RightHandLittle2
                                {
                                    OFFSET -0.193662 -0.023241 -0.003188
                                    CHANNELS 3 Zrotation Yrotation Xrotation
                                    JOINT RightHandLittle3
                                    {
                                        OFFSET -0.096879 -0.070403 -0.012385
                                        CHANNELS 3 Zrotation Yrotation Xrotation
                                        End Site
                                        {
                                            OFFSET -0.064715 -0.172484 -0.048475
                                        }
                                    }
                                }
                            }
                        }
                    }
                }
            }
        }
    }
    JOINT LeftHip
    {
        OFFSET 0.685143 0.673822 -0.044491
        CHANNELS 3 Zrotation Yrotation Xrotation
        JOINT LeftKnee
        {
            OFFSET 0.085364 -3.750208 0.017676
            CHANNELS 3 Zrotation Yrotation Xrotation
            JOINT LeftAnkle
            {
                OFFSET 0.094583 -4.155206 0.019585
                CHANNELS 3 Zrotation Yrotation Xrotation
                JOINT LeftToe
                {
                    OFFSET -0.000000 -0.395925 0.621478
                    CHANNELS 3 Zrotation Yrotation Xrotation
                    End Site
                    {
                        OFFSET -0.000000 -0.077878 0.321152
                    }
                }
            }
        }
    }
    JOINT RightHip
    {
        OFFSET -0.685143 0.673822 -0.044492
        CHANNELS 3 Zrotation Yrotation Xrotation
        JOINT RightKnee
        {
            OFFSET -0.085364 -3.750208 0.017677
            CHANNELS 3 Zrotation Yrotation Xrotation
            JOINT RightAnkle
            {
                OFFSET -0.094583 -4.155206 0.019585
                CHANNELS 3 Zrotation Yrotation Xrotation
                JOINT RightToe
                {
                    OFFSET -0.000000 -0.395925 0.621478
                    CHANNELS 3 Zrotation Yrotation Xrotation
                    End Site
                    {
                        OFFSET -0.000000 -0.077878 0.321152
                    }
                }
            }
        }
    }
}
MOTION
Frames: 5
Frame Time: 0.033333
-0.014460 8.274688 -0.474369 180.000000 -0.000011 180.000000 0.427843 0.020193 -3.138688 0.000196 -0.003135 -3.645279 0.798032 0.785245 15.316351 -0.085669 1.663786 32.118076 -14.500031 -3.489099 -0.012971 -60.831474 -4.171852 5.254517 0.026124 -16.034245 -0.192817 8.361924 -5.194207 28.947828 -0.000006 -0.000000 -0.000002 0.000002 0.000002 -0.000003 0.000001 -0.000000 -0.000002 -0.000007 0.000005 0.000000 -0.000001 0.000002 -0.000002 -0.000003 0.000002 0.000002 -0.000003 0.000003 -0.000002 0.000000 0.000002 -0.000003 0.000000 -0.000002 0.000002 0.000000 -0.000000 0.000002 -0.000002 0.000002 0.000000 0.000009 0.000002 -0.000003 -0.000003 -0.000000 -0.000003 -0.000001 -0.000000 -0.000003 0.000003 -0.000000 0.000002 14.818685 3.181175 -0.010297 62.543915 4.039470 5.125457 -0.019548 13.970425 -0.166928 0.450734 1.569121 40.515923 -0.000002 -0.000000 0.000003 0.000002 0.000002 -0.000003 0.000003 0.000002 -0.000002 0.000000 0.000002 -0.000002 0.000002 -0.000000 0.000002 -0.000005 -0.000003 0.000003 -0.000003 0.000002 0.000003 -0.000002 -0.000000 0.000000 0.000003 -0.000002 0.000000 -0.000005 -0.000000 0.000000 0.000000 -0.000000 -0.000002 -0.000002 -0.000002 0.000000 0.000000 -0.000000 0.000000 -0.000005 0.000003 0.000007 0.000002 -0.000003 -0.000003 -0.984187 -3.420721 -2.875642 0.028753 0.272316 12.052166 -3.132433 7.182429 -14.521800 -0.039116 -0.266433 -5.279068 0.774727 -1.065625 -2.892776 -0.027843 -0.268072 11.861512 5.054361 -3.702583 -14.197069 0.070795 0.492992 -5.458501
-0.014461 8.274688 -0.474369 180.000000 -0.000011 180.000000 0.424454 0.023767 -3.142437 0.010780 -0.004475 -3.632699 0.797242 0.784633 15.313969 -0.085379 1.658160 32.113358 -14.500946 -3.490114 -0.013491 -60.838989 -4.195492 5.259274 0.026023 -16.004471 -0.192439 8.361662 -5.194167 28.947937 0.000015 -0.000003 0.000005 -0.016567 0.108458 -0.267914 -0.004849 -0.025753 -0.012346 0.000016 0.000005 -0.000007 -0.796251 -0.035862 0.009318 -0.459837 -0.024247 0.013691 0.043550 0.001129 -0.003342 -0.453813 -0.018949 0.023279 -0.000003 -0.000003 -0.000002 0.200986 0.012801 -0.021735 0.225050 0.012694 -0.004310 0.000003 0.000003 0.000000 0.267623 0.065252 -0.050854 0.159274 0.035910 -0.011975 0.632789 0.117073 0.014318 14.816931 3.184903 -0.009794 62.534439 4.038734 5.126358 -0.019601 13.985232 -0.167112 0.450823 1.569299 40.515938 0.000007 0.000010 0.000002 -0.039001 0.143678 0.248206 -0.027148 0.007698 -0.006444 0.000012 0.000002 0.000003 0.788779 -0.005654 0.114373 0.457035 -0.006595 0.057821 -0.043472 -0.001101 -0.003342 0.452980 -0.011471 0.038572 -0.000002 0.000002 -0.000002 -0.201028 -0.012842 -0.021720 -0.221172 0.043097 -0.007411 0.000000 -0.000003 -0.000007 -0.267594 -0.065145 -0.050672 -0.156512 0.045325 0.015947 -0.624789 0.154584 0.001422 -0.984205 -3.420357 -2.875836 0.028754 0.272324 12.052517 -3.132644 7.182247 -14.521940 -0.039119 -0.266454 -5.279044 0.774727 -1.065607 -2.892775 -0.027843 -0.268072 11.861513 5.054355 -3.702596 -14.197079 0.070795 0.492989 -5.458489
-0.014461 8.274688 -0.474369 180.000000 -0.000011 180.000000 0.421207 0.026976 -3.141085 0.021508 -0.005768 -3.636253 0.796175 0.784097 15.315873 -0.085109 1.652918 32.117825 -14.502592 -3.488319 -0.013983 -60.848583 -4.206813 5.260844 0.025939 -15.980442 -0.192135 8.360885 -5.194059 28.948252 0.000009 -0.000003 0.000009 -0.034469 0.221799 -0.548176 -0.010015 -0.054078 -0.022570 0.002961 0.000068 -0.000263 -1.629245 -0.073208 0.019584 -0.941016 -0.049510 0.028204 0.088771 0.002264 -0.006806 -0.928731 -0.038568 0.047796 -0.000003 -0.000003 0.000003 0.410986 0.026228 -0.044401 0.460187 0.023192 -0.005894 0.000003 0.000002 -0.000003 0.547158 0.133208 -0.103578 0.325718 0.073484 -0.024382 1.294602 0.239341 0.030688 14.815703 3.185508 -0.009282 62.525505 4.022370 5.123390 -0.019678 14.011364 -0.167437 0.451100 1.569820 40.516010 0.000002 0.000003 -0.000003 -0.079151 0.294150 0.507751 -0.055594 0.015752 -0.013213 -0.002881 -0.000036 -0.000265 1.613987 -0.013278 0.233971 0.935103 -0.013985 0.118253 -0.088835 -0.002969 -0.006851 0.927001 -0.023808 0.078837 -0.000003 0.000002 0.000005 -0.411121 -0.026332 -0.044383 -0.452268 0.088019 -0.015388 0.000000 -0.000003 -0.000003 -0.547192 -0.133150 -0.103244 -0.320039 0.092727 0.032447 -1.278225 0.316285 0.001124 -0.984260 -3.419265 -2.876202 0.028757 0.272339 12.053164 -3.133250 7.181721 -14.522162 -0.039129 -0.266515 -5.278991 0.774725 -1.065545 -2.892836 -0.027843 -0.268075 11.861633 5.054339 -3.702637 -14.197168 0.070794 0.492977 -5.458399
-0.014462 8.274688 -0.474369 180.000000 -0.000011 180.000000 0.424420 0.024296 -3.139597 0.012872 -0.004711 -3.639632 0.795795 0.784724 15.318200 -0.085360 1.657798 32.123615 -14.501901 -3.489223 -0.013581 -60.843830 -4.200177 5.259243 0.025979 -15.990175 -0.192258 8.359596 -5.193894 28.948784 0.000003 -0.000005 0.000014 -0.053636 0.339630 -0.839861 -0.015366 -0.083479 -0.033149 0.006041 0.000142 -0.000529 -2.496187 -0.111937 0.030850 -1.441568 -0.075649 0.043549 0.135736 0.003444 -0.010418 -1.423082 -0.058799 0.073488 -0.000004 0.000002 -0.000002 0.629314 0.040298 -0.067940 0.704599 0.034105 -0.007486 0.000001 0.000005 0.000002 0.837760 0.204384 -0.158135 0.498617 0.112498 -0.037146 1.982981 0.366280 0.049197 14.816712 3.183516 -0.009691 62.531345 4.028766 5.123611 -0.019623 13.994130 -0.167223 0.451552 1.570683 40.516136 -0.000005 -0.000002 0.000002 -0.120232 0.450828 0.777679 -0.085128 0.024114 -0.020234 -0.005934 -0.000109 -0.000531 2.472652 -0.023030 0.358251 1.432537 -0.022197 0.181081 -0.135851 -0.004785 -0.009446 1.420328 -0.036985 0.120637 0.000002 0.000002 0.000000 -0.629483 -0.040406 -0.067875 -0.692501 0.134580 -0.023943 -0.000002 -0.000002 0.000002 -0.837883 -0.204379 -0.157652 -0.490002 0.142049 0.049500 -1.957882 0.484461 -0.001156 -0.984353 -3.417458 -2.876865 0.028763 0.272365 12.054341 -3.134261 7.180849 -14.522586 -0.039144 -0.266617 -5.278919 0.774724 -1.065443 -2.892927 -0.027844 -0.268079 11.861813 5.054311 -3.702705 -14.197312 0.070793 0.492960 -5.458264
-0.014463 8.274688 -0.474369 180.000000 -0.000011 180.000000 0.420965 0.028212 -3.141522 0.025157 -0.006233 -3.631263 0.793926 0.784185 15.318712 -0.085055 1.651879 32.125961 -14.503506 -3.489731 -0.014164 -60.854931 -4.228092 5.264204 0.025834 -15.949315 -0.191742 8.357799 -5.193657 28.949511 0.000003 -0.000007 -0.000003 -0.074206 0.461495 -1.141816 -0.020894 -0.113870 -0.044188 0.009181 0.000225 -0.000799 -3.393685 -0.151813 0.043155 -1.959888 -0.102586 0.059662 0.184342 0.004692 -0.014145 -1.935054 -0.079485 0.100281 -0.000003 -0.000000 0.000002 0.855267 0.054927 -0.092254 0.957353 0.045440 -0.009072 0.000001 0.000002 -0.000002 1.138398 0.278326 -0.214244 0.677488 0.152943 -0.050217 2.695553 0.497442 0.069963 14.814786 3.186398 -0.009105 62.519337 4.021085 5.122659 -0.019693 14.015900 -0.167493 0.452184 1.571884 40.516315 -0.000005 -0.000002 0.000009 -0.161957 0.613257 1.056998 -0.115657 0.031106 -0.030177 -0.009091 -0.000186 -0.000809 3.361664 -0.035088 0.486792 1.947497 -0.031287 0.246022 -0.184579 -0.006646 -0.012035 1.931201 -0.051003 0.163810 0.000002 -0.000000 0.000002 -0.855503 -0.055092 -0.092172 -0.941327 0.179855 -0.036014 0.000000 0.000002 0.000000 -1.138630 -0.278369 -0.213569 -0.665807 0.193146 0.066957 -2.661479 0.658469 -0.005620 -0.984482 -3.414938 -2.877915 0.028772 0.272407 12.056224 -3.135685 7.179618 -14.523291 -0.039165 -0.266755 -5.278715 0.774721 -1.065297 -2.893112 -0.027846 -0.268087 11.862172 5.054276 -3.702796 -14.197564 0.070791 0.492937 -5.458050
